<svg width="12" height="29" viewBox="0 0 12 29" fill="none" xmlns="http://www.w3.org/2000/svg">
<mask id="path-1-inside-1_2_470" fill="white">
<path d="M0 3C0 1.34315 1.34315 0 3 0H9C10.6569 0 12 1.34315 12 3V26C12 27.6569 10.6569 29 9 29H3C1.34315 29 0 27.6569 0 26V3Z"/>
</mask>
<path fill-rule="evenodd" clip-rule="evenodd" d="M3 0C2.59271 0 2.19965 0.0608714 1.8294 0.174013L1.94442 0.451393C2.2508 0.165276 2.61253 0 3 0ZM1.0716 2.20161L0.689504 2.04316L-0.234222 1.66011L-0.242186 1.65681C-0.530839 2.05551 -0.74775 2.50955 -0.873982 3C-0.952934 3.30675 -0.996414 3.62774 -0.999787 3.95833H-0.5H0.5H1V3C1 2.72354 1.02493 2.45582 1.0716 2.20161ZM1 5.875H0.5H-0.5H-1V7.79167H-0.5H0.5H1V5.875ZM1 9.70833H0.5H-0.5H-1V11.625H-0.5H0.5H1V9.70833ZM1 13.5417H0.5H-0.5H-1V15.4583H-0.5H0.5H1V13.5417ZM1 17.375H0.5H-0.5H-1V19.2917H-0.5H0.5H1V17.375ZM1 21.2083H0.5H-0.5H-1V23.125H-0.5H0.5H1V21.2083ZM1 25.0417H0.5H-0.5H-1V26C-1 26.0338 -0.999579 26.0675 -0.998742 26.1011C-0.986184 26.6051 -0.879978 27.088 -0.696084 27.5314L-0.234221 27.3399L0.689505 26.9568L1.15137 26.7653C1.06403 26.5547 1.01145 26.3252 1.00167 26.0827C1.00056 26.0553 1 26.0277 1 26V25.0417ZM1.66011 29.2342L2.04316 28.3105L2.23469 27.8486C2.45447 27.9398 2.69483 27.9931 2.94899 27.9994C2.96593 27.9998 2.98294 28 3 28H3.75V28.5V29.5V30H3C2.94729 30 2.89479 29.999 2.84253 29.9969C2.3589 29.9781 1.89547 29.8731 1.46858 29.6961L1.66011 29.2342ZM5.25 30H6.75V29.5V28.5V28H5.25V28.5V29.5V30ZM8.25 28V28.5V29.5V29.9923C8.50734 29.9764 8.7581 29.9362 9 29.874C9.49045 29.7478 9.94449 29.5308 10.3432 29.2422L10.3399 29.2342L9.95684 28.3105L9.79839 27.9284C9.54418 27.9751 9.27646 28 9 28H8.25ZM11.5486 27.0556L11.826 27.1706C11.9391 26.8004 12 26.4073 12 26C12 26.3875 11.8347 26.7492 11.5486 27.0556Z" fill="#18181B" mask="url(#path-1-inside-1_2_470)"/>
</svg>
